<svg width="24" height="24" viewBox="0 0 24 24" fill="none" xmlns="http://www.w3.org/2000/svg">
<path fill-rule="evenodd" clip-rule="evenodd" d="M8.69998 1.25H15.3C15.52 1.25 15.689 1.25 15.836 1.266C16.4884 1.33589 17.0944 1.63677 17.5444 2.11431C17.9944 2.59185 18.2589 3.21456 18.29 3.87C18.9042 4.05477 19.4394 4.43888 19.811 4.96169C20.1825 5.48449 20.3694 6.11618 20.342 6.757C20.74 6.937 21.092 7.185 21.395 7.53C22.011 8.234 22.199 9.095 22.207 10.1C22.214 11.072 22.05 12.302 21.845 13.834L21.431 16.942C21.271 18.14 21.142 19.11 20.941 19.869C20.731 20.659 20.423 21.314 19.844 21.822C19.264 22.329 18.574 22.548 17.763 22.652C16.983 22.75 16.006 22.75 14.797 22.75H9.20198C7.99398 22.75 7.01598 22.75 6.23698 22.651C5.42598 22.548 4.73598 22.329 4.15698 21.821C3.57698 21.314 3.26798 20.659 3.05898 19.869C2.85798 19.109 2.72898 18.14 2.56898 16.942L2.15398 13.834C1.94998 12.302 1.78598 11.072 1.79398 10.101C1.79998 9.095 1.98898 8.234 2.60498 7.53C2.89494 7.19812 3.25446 6.93419 3.65798 6.757C3.63057 6.11618 3.81742 5.48449 4.18901 4.96169C4.5606 4.43888 5.09576 4.05477 5.70998 3.87C5.74109 3.21456 6.00553 2.59185 6.45556 2.11431C6.90559 1.63677 7.51154 1.33589 8.16398 1.266C8.31098 1.25 8.47998 1.25 8.69998 1.25ZM7.23098 3.75H16.767C16.7139 3.49001 16.5795 3.25364 16.3832 3.07512C16.1869 2.8966 15.9388 2.78518 15.675 2.757C15.5361 2.74887 15.397 2.74653 15.258 2.75H8.73998C8.45998 2.75 8.37898 2.751 8.32298 2.757C8.05913 2.78518 7.81109 2.8966 7.61477 3.07512C7.41845 3.25364 7.28404 3.49001 7.23098 3.75ZM5.18098 6.367C6.12298 6.25 7.31998 6.25 8.79398 6.25H15.206C16.68 6.25 17.876 6.25 18.819 6.367C18.7579 6.05213 18.5889 5.76838 18.3413 5.56453C18.0937 5.36068 17.7827 5.24947 17.462 5.25H6.53798C5.85498 5.25 5.30298 5.74 5.18098 6.367ZM5.25498 7.871C4.43098 7.987 4.01398 8.198 3.73398 8.518C3.45398 8.838 3.29898 9.278 3.29398 10.111C3.28698 10.965 3.43498 12.09 3.64898 13.694L3.70598 14.119L4.12698 13.814C5.21498 13.026 6.82098 13.065 7.85598 13.921L11.694 17.098C12.057 17.398 12.682 17.454 13.133 17.192L13.4 17.037C14.676 16.294 16.386 16.373 17.564 17.25L19.641 18.798C19.7605 18.0991 19.8639 17.3976 19.951 16.694L20.351 13.694C20.565 12.09 20.713 10.965 20.707 10.111C20.701 9.279 20.547 8.838 20.267 8.518C19.987 8.198 19.569 7.987 18.745 7.871C17.899 7.751 16.765 7.75 15.147 7.75H8.85298C7.23498 7.75 6.09998 7.753 5.25498 7.871ZM19.168 20.314L16.668 18.452C15.985 17.943 14.925 17.884 14.154 18.332L13.887 18.488C12.915 19.053 11.604 18.97 10.737 18.253L6.89998 15.077C6.40198 14.665 5.55098 14.636 5.00798 15.029L3.93198 15.809L4.04998 16.694C4.21798 17.954 4.33598 18.828 4.50998 19.484C4.67798 20.121 4.87598 20.457 5.14498 20.693C5.41498 20.928 5.77498 21.08 6.42698 21.163C7.09998 21.249 7.98298 21.25 9.25398 21.25H14.748C16.018 21.25 16.902 21.249 17.575 21.163C18.228 21.08 18.587 20.928 18.856 20.693C18.973 20.591 19.076 20.471 19.169 20.315M16.5 10.75C16.3011 10.75 16.1103 10.829 15.9697 10.9697C15.829 11.1103 15.75 11.3011 15.75 11.5C15.75 11.6989 15.829 11.8897 15.9697 12.0303C16.1103 12.171 16.3011 12.25 16.5 12.25C16.6989 12.25 16.8897 12.171 17.0303 12.0303C17.171 11.8897 17.25 11.6989 17.25 11.5C17.25 11.3011 17.171 11.1103 17.0303 10.9697C16.8897 10.829 16.6989 10.75 16.5 10.75ZM14.25 11.5C14.25 11.2045 14.3082 10.9119 14.4213 10.639C14.5343 10.366 14.7001 10.1179 14.909 9.90901C15.1179 9.70008 15.366 9.53434 15.6389 9.42127C15.9119 9.3082 16.2045 9.25 16.5 9.25C16.7955 9.25 17.088 9.3082 17.361 9.42127C17.634 9.53434 17.882 9.70008 18.091 9.90901C18.2999 10.1179 18.4656 10.366 18.5787 10.639C18.6918 10.9119 18.75 11.2045 18.75 11.5C18.75 12.0967 18.5129 12.669 18.091 13.091C17.669 13.5129 17.0967 13.75 16.5 13.75C15.9032 13.75 15.3309 13.5129 14.909 13.091C14.487 12.669 14.25 12.0967 14.25 11.5Z" fill="black"/>
</svg>
