<svg width="24" height="24" viewBox="0 0 24 24" fill="none" xmlns="http://www.w3.org/2000/svg">
<path d="M14.9389 1.528C14.7607 1.60757 14.6205 1.75352 14.5481 1.93483C14.4757 2.11614 14.4769 2.31852 14.5514 2.49897C14.6259 2.67943 14.7678 2.82374 14.9469 2.90123C15.1261 2.97873 15.3284 2.98331 15.5109 2.914L14.9389 1.528ZM7.73694 15.16C7.66721 15.2296 7.61187 15.3123 7.57408 15.4032C7.53629 15.4942 7.51679 15.5918 7.5167 15.6903C7.51661 15.7888 7.53592 15.8864 7.57354 15.9774C7.61116 16.0685 7.66634 16.1513 7.73594 16.221C7.80554 16.2907 7.8882 16.3461 7.97918 16.3839C8.07017 16.4216 8.16771 16.4411 8.26623 16.4412C8.36476 16.4413 8.46233 16.422 8.55339 16.3844C8.64445 16.3468 8.72721 16.2916 8.79694 16.222L7.73694 15.16ZM10.8569 14.169C10.9267 14.0994 10.9821 14.0167 11.02 13.9257C11.0578 13.8347 11.0774 13.7371 11.0775 13.6386C11.0777 13.54 11.0584 13.4424 11.0208 13.3512C10.9832 13.2601 10.928 13.1773 10.8584 13.1075C10.7888 13.0377 10.7062 12.9823 10.6152 12.9444C10.5241 12.9066 10.4266 12.887 10.328 12.8869C10.2294 12.8868 10.1318 12.906 10.0407 12.9436C9.94956 12.9812 9.86674 13.0364 9.79694 13.106L10.8569 14.169ZM13.0289 5.156C13.1007 5.08698 13.158 5.00435 13.1975 4.91295C13.237 4.82154 13.258 4.72318 13.259 4.62361C13.2601 4.52404 13.2414 4.42525 13.2039 4.333C13.1664 4.24075 13.1109 4.15689 13.0407 4.08631C12.9704 4.01573 12.8868 3.95985 12.7948 3.92192C12.7027 3.88399 12.604 3.86478 12.5044 3.8654C12.4048 3.86602 12.3064 3.88647 12.2148 3.92555C12.1232 3.96462 12.0403 4.02154 11.9709 4.093L13.0289 5.156ZM19.7639 10.016L13.9169 15.845L14.9769 16.907L20.8229 11.077L19.7639 10.016ZM9.48294 15.846L8.10894 14.476L7.04994 15.54L8.42394 16.91L9.48294 15.846ZM17.5469 2.75H18.1159V1.25H17.5459L17.5469 2.75ZM21.2499 5.873V6.44H22.7499V5.873H21.2499ZM18.1159 2.75C19.0519 2.75 19.6799 2.752 20.1469 2.814C20.5929 2.874 20.7799 2.977 20.9019 3.098L21.9609 2.036C21.5139 1.59 20.9579 1.41 20.3469 1.328C19.7569 1.248 19.0099 1.25 18.1159 1.25V2.75ZM22.7499 5.873C22.7499 4.981 22.7519 4.237 22.6719 3.648C22.5899 3.037 22.4079 2.482 21.9609 2.036L20.8999 3.098C21.0219 3.219 21.1249 3.405 21.1849 3.848C21.2479 4.314 21.2499 4.938 21.2499 5.873H22.7499ZM8.10994 14.477C7.44694 13.817 7.00494 13.373 6.71894 12.999C6.44594 12.643 6.38794 12.439 6.38794 12.269H4.88794C4.88794 12.901 5.15294 13.421 5.52794 13.911C5.88894 14.383 6.41794 14.908 7.04994 15.539L8.10994 14.477ZM8.42294 16.908C9.05494 17.538 9.58294 18.066 10.0559 18.426C10.5479 18.8 11.0689 19.063 11.6999 19.063V17.563C11.5269 17.563 11.3219 17.504 10.9649 17.233C10.5899 16.947 10.1449 16.506 9.48294 15.846L8.42294 16.908ZM20.8239 11.078C21.6219 10.283 22.1779 9.746 22.4709 9.042L21.0859 8.467C20.9349 8.831 20.6499 9.134 19.7639 10.017L20.8239 11.078ZM21.2499 6.44C21.2499 7.689 21.2369 8.103 21.0859 8.467L22.4709 9.042C22.7629 8.338 22.7499 7.566 22.7499 6.44H21.2499ZM17.5469 1.25C16.4169 1.25 15.6439 1.237 14.9389 1.528L15.5109 2.914C15.8769 2.764 16.2949 2.75 17.5469 2.75V1.25ZM8.79694 16.222L10.8569 14.17L9.79694 13.107L7.73694 15.161L8.79694 16.222ZM13.9169 15.845C13.4059 16.355 13.0209 16.739 12.6909 17.024C12.3589 17.311 12.1349 17.45 11.9599 17.515L12.4779 18.923C12.9059 18.765 13.2919 18.487 13.6709 18.159C14.0499 17.831 14.4789 17.404 14.9759 16.909L13.9169 15.845ZM11.9599 17.515C11.8771 17.5474 11.7889 17.5637 11.6999 17.563V19.063C11.9693 19.0623 12.2286 19.0157 12.4779 18.923L11.9599 17.515ZM7.04994 9C6.56494 9.484 6.14594 9.901 5.81994 10.272C5.49594 10.642 5.21994 11.017 5.05394 11.428L6.44594 11.988C6.51594 11.811 6.66194 11.588 6.94794 11.261C7.23294 10.936 7.61094 10.559 8.10894 10.061L7.04994 9ZM5.05394 11.428C4.944 11.6947 4.8876 11.9805 4.88794 12.269H6.38794C6.38794 12.179 6.40394 12.091 6.44594 11.988L5.05394 11.428ZM8.10894 10.062L13.0289 5.156L11.9709 4.093L7.04994 9L8.10894 10.062Z" fill="black"/>
<path d="M5.57302 11.532L6.10302 11.002V11L5.57302 11.532ZM9.92002 7.42199C10.0028 7.47892 10.0961 7.51864 10.1945 7.5388C10.2929 7.55896 10.3944 7.55914 10.4929 7.53935C10.5913 7.51955 10.6848 7.48018 10.7678 7.42356C10.8508 7.36694 10.9215 7.29423 10.9759 7.20975C11.0302 7.12527 11.067 7.03073 11.0841 6.93175C11.1012 6.83277 11.0983 6.73137 11.0754 6.63355C11.0526 6.53573 11.0103 6.4435 10.9512 6.36233C10.892 6.28115 10.8171 6.21268 10.731 6.16099L9.92002 7.42199ZM2.70102 10.169C2.88454 10.2426 3.08969 10.2407 3.27184 10.1638C3.45399 10.0869 3.59841 9.94121 3.67368 9.75838C3.74895 9.57555 3.74898 9.37039 3.67376 9.18754C3.59854 9.00469 3.45416 8.85894 3.27202 8.78199L2.70102 10.169ZM5.21902 12.238C5.3612 12.3705 5.54925 12.4426 5.74355 12.4392C5.93785 12.4357 6.12323 12.357 6.26065 12.2196C6.39806 12.0822 6.47677 11.8968 6.4802 11.7025C6.48363 11.5082 6.4115 11.3202 6.27902 11.178L5.21902 12.238ZM5.62202 10.522C5.55274 10.4505 5.4699 10.3935 5.37834 10.3543C5.28678 10.3151 5.18834 10.2946 5.08876 10.2938C4.98918 10.2931 4.89045 10.3122 4.79834 10.3501C4.70622 10.3879 4.62256 10.4437 4.55225 10.5142C4.48193 10.5848 4.42636 10.6686 4.38878 10.7608C4.3512 10.853 4.33236 10.9518 4.33336 11.0514C4.33437 11.151 4.35519 11.2493 4.39462 11.3408C4.43405 11.4322 4.4913 11.5149 4.56302 11.584L5.62202 10.522ZM10.732 6.16099L10.102 5.75699L9.29002 7.01699L9.92002 7.42199L10.732 6.16099ZM10.102 5.75699C9.48103 5.35699 8.97902 5.03299 8.54802 4.79999C8.10602 4.56199 7.69302 4.39399 7.23602 4.32599L7.01702 5.80999C7.23702 5.84299 7.47702 5.92699 7.83602 6.11999C8.20402 6.31999 8.65002 6.60499 9.29002 7.01699L10.102 5.75699ZM2.75502 8.55499C3.3134 7.99014 3.88353 7.43702 4.46502 6.89599C4.73502 6.64899 4.98302 6.43599 5.19502 6.27299C5.41802 6.10099 5.56002 6.01699 5.62702 5.98899L5.05202 4.60399C4.79502 4.71099 4.52502 4.89499 4.27902 5.08499C4.02102 5.28499 3.73902 5.52699 3.45302 5.78799C2.88102 6.30999 2.25302 6.93699 1.69602 7.49299L2.75502 8.55499ZM7.23602 4.32599C6.49628 4.21934 5.74146 4.31542 5.05202 4.60399L5.62702 5.98899C6.06564 5.8047 6.54603 5.74284 7.01702 5.80999L7.23602 4.32599ZM2.20802 9.97399L2.58702 10.124L3.13902 8.72899L2.76102 8.57899L2.20802 9.97399ZM2.58702 10.124L2.70102 10.169L3.27202 8.78199L3.13902 8.72899L2.58702 10.124ZM1.69602 7.49299C1.51812 7.67036 1.38715 7.88922 1.31491 8.12983C1.24268 8.37044 1.23145 8.62524 1.28225 8.87127C1.33304 9.1173 1.44426 9.34682 1.60587 9.53915C1.76749 9.73148 1.97442 9.88058 2.20802 9.97299L2.76102 8.57899L2.75402 8.57599L2.75102 8.56799V8.55999L2.75502 8.55499L1.69602 7.49299ZM5.04302 12.062L5.21902 12.238L6.27902 11.178L6.10502 11L5.04302 12.062ZM4.56302 11.584L5.04302 12.062L6.10502 11L5.62402 10.52L4.56302 11.584ZM12.5 18.5L11.97 19.03L12.005 19.064L12.5 18.5ZM17.823 13.232C17.7133 13.0688 17.5439 12.9553 17.3512 12.9158C17.1586 12.8763 16.9582 12.9141 16.7931 13.021C16.6281 13.1278 16.5116 13.2952 16.4687 13.4871C16.4259 13.679 16.4601 13.8801 16.564 14.047L17.823 13.232ZM15.445 21.297C15.4104 21.203 15.3573 21.117 15.2889 21.0439C15.2205 20.9707 15.1381 20.9121 15.0466 20.8713C14.9552 20.8305 14.8565 20.8085 14.7563 20.8065C14.6562 20.8045 14.5567 20.8225 14.4637 20.8596C14.3707 20.8967 14.286 20.952 14.2147 21.0223C14.1434 21.0926 14.0869 21.1765 14.0485 21.269C14.0102 21.3615 13.9907 21.4607 13.9913 21.5608C13.9919 21.661 14.0126 21.76 14.052 21.852L15.445 21.297ZM12.528 19.523C12.6021 19.5879 12.6882 19.6376 12.7815 19.6693C12.8748 19.701 12.9734 19.7139 13.0717 19.7075C13.17 19.701 13.266 19.6753 13.3544 19.6317C13.4427 19.5881 13.5216 19.5276 13.5865 19.4535C13.6515 19.3794 13.7012 19.2933 13.7328 19.2C13.7645 19.1067 13.7775 19.0081 13.771 18.9098C13.7645 18.8116 13.7388 18.7155 13.6952 18.6272C13.6516 18.5388 13.5911 18.4599 13.517 18.395L12.528 19.523ZM12.749 17.689C12.6076 17.5523 12.4182 17.4766 12.2216 17.4782C12.0249 17.4799 11.8368 17.5586 11.6977 17.6976C11.5585 17.8366 11.4796 18.0247 11.4778 18.2213C11.476 18.418 11.5515 18.6075 11.688 18.749L12.749 17.689ZM16.564 14.047L16.97 14.675L18.23 13.859L17.823 13.232L16.564 14.047ZM15.428 21.185L15.344 21.268L16.404 22.331L16.488 22.247L15.428 21.185ZM16.97 14.675C17.384 15.313 17.67 15.757 17.87 16.125C18.064 16.482 18.148 16.721 18.18 16.939L19.664 16.719C19.596 16.262 19.427 15.849 19.188 15.409C18.955 14.979 18.631 14.479 18.23 13.859L16.97 14.675ZM16.488 22.247C17.045 21.691 17.674 21.064 18.198 20.494C18.459 20.209 18.703 19.929 18.902 19.672C19.092 19.426 19.278 19.157 19.385 18.9L18.001 18.322C17.9228 18.4755 17.8275 18.6198 17.717 18.752C17.5185 19.0029 17.31 19.2458 17.092 19.48C16.595 20.021 15.991 20.623 15.428 21.185L16.488 22.247ZM18.18 16.939C18.247 17.395 18.188 17.873 18.001 18.322L19.385 18.9C19.675 18.207 19.773 17.452 19.665 16.719L18.18 16.939ZM13.517 18.395L12.994 17.936L12.005 19.064L12.528 19.523L13.517 18.395ZM15.345 21.268C15.3534 21.2612 15.3629 21.2558 15.373 21.252L15.395 21.251L15.419 21.263C15.431 21.2737 15.4397 21.285 15.445 21.297L14.052 21.852C14.436 22.816 15.684 23.048 16.404 22.331L15.345 21.268ZM13.03 17.97L12.749 17.689L11.688 18.749L11.969 19.031L13.03 17.97ZM13.917 10.629C13.9868 10.6986 14.0696 10.7538 14.1608 10.7914C14.2519 10.8289 14.3495 10.8482 14.4481 10.8481C14.5467 10.8479 14.6442 10.8284 14.7352 10.7905C14.8263 10.7527 14.9089 10.6973 14.9785 10.6275C15.0481 10.5577 15.1033 10.4749 15.1409 10.3838C15.1785 10.2926 15.1978 10.195 15.1976 10.0964C15.1975 9.99786 15.1779 9.90029 15.1401 9.80927C15.1022 9.71826 15.0468 9.63559 14.977 9.56599L13.917 10.629ZM16.664 9.56599C16.5231 9.70642 16.4437 9.8971 16.4433 10.0961C16.4429 10.2951 16.5216 10.486 16.662 10.627C16.8025 10.768 16.9931 10.8474 17.1921 10.8477C17.3911 10.8481 17.5821 10.7694 17.723 10.629L16.664 9.56599ZM17.723 6.82799C17.2177 6.32445 16.5334 6.04171 15.82 6.04171C15.1066 6.04171 14.4223 6.32445 13.917 6.82799L14.977 7.88999C15.2011 7.66704 15.5044 7.54189 15.8205 7.54189C16.1366 7.54189 16.4399 7.66704 16.664 7.88999L17.723 6.82799ZM13.917 6.82799C13.6667 7.07703 13.468 7.37309 13.3325 7.69916C13.1969 8.02523 13.1271 8.37487 13.1271 8.72799C13.1271 9.08112 13.1969 9.43076 13.3325 9.75682C13.468 10.0829 13.6667 10.38 13.917 10.629L14.977 9.56599C14.8664 9.45629 14.7785 9.32575 14.7186 9.18192C14.6586 9.03809 14.6278 8.88381 14.6278 8.72799C14.6278 8.57217 14.6586 8.41789 14.7186 8.27406C14.7785 8.13023 14.8664 7.9997 14.977 7.88999L13.917 6.82799ZM17.723 10.629C17.9734 10.38 18.172 10.0829 18.3076 9.75682C18.4432 9.43076 18.5129 9.08112 18.5129 8.72799C18.5129 8.37487 18.4432 8.02523 18.3076 7.69916C18.172 7.37309 17.9734 7.07703 17.723 6.82799L16.664 7.88999C16.7747 7.9997 16.8615 8.13023 16.9215 8.27406C16.9814 8.41789 17.0123 8.57217 17.0123 8.72799C17.0123 8.88381 16.9814 9.03809 16.9215 9.18192C16.8615 9.32575 16.7747 9.45629 16.664 9.56599L17.723 10.629Z" fill="black"/>
<path fill-rule="evenodd" clip-rule="evenodd" d="M5.43932 15.1176C5.55562 15.0013 5.44687 14.7039 5.19641 14.4535C4.94596 14.203 4.64864 14.0943 4.53234 14.2106L2.21056 16.5324C2.09426 16.6487 2.20302 16.946 2.45348 17.1964C2.70393 17.4469 3.00125 17.5556 3.11755 17.4393L5.43932 15.1176ZM9.43898 18.6961C9.68943 18.9466 9.79819 19.2439 9.68189 19.3602L7.36012 21.682C7.24381 21.7983 6.9465 21.6895 6.69604 21.4391C6.44558 21.1886 6.33683 20.8913 6.45313 20.775L8.7749 18.4532C8.8912 18.3369 9.18852 18.4457 9.43898 18.6961ZM6.31763 17.5748C6.56809 17.8252 6.67685 18.1226 6.56055 18.2389L4.23877 20.5606C4.12247 20.6769 3.82516 20.5682 3.5747 20.3177C3.32424 20.0673 3.21549 19.77 3.33179 19.6537L5.65356 17.3319C5.76986 17.2156 6.06718 17.3243 6.31763 17.5748Z" fill="black"/>
</svg>
